<?xml version="1.0" encoding="UTF-8"?>
<svg id="Layer_2" data-name="Layer 2" xmlns="http://www.w3.org/2000/svg" viewBox="0 0 908.85 908.85">
  <defs>
    <style>
      .cls-1 {
        fill: #6bbdd6;
      }

      .cls-2 {
        fill: #d7f7ff;
      }
    </style>
  </defs>
  <g id="Objects">
    <g>
      <path class="cls-2" d="M908.85,454.43c0,120.23-46.69,229.56-122.94,310.83-20.34,21.69-42.78,41.38-67.01,58.74-74.5,53.41-165.82,84.85-264.48,84.85s-189.97-31.44-264.47-84.85c-24.22-17.37-46.67-37.06-67.01-58.75C46.69,683.98,0,574.66,0,454.43,0,203.45,203.45,0,454.43,0s454.43,203.45,454.43,454.43Z"/>
      <path class="cls-1" d="M718.91,707.29v116.71c-74.5,53.41-165.82,84.85-264.48,84.85s-189.97-31.44-264.47-84.85v-116.71c0-36.89,25.52-69.03,61.49-77.22l47.48-10.97c-107.37.66-95.73-80.67-95.73-80.67,52.89,0,66.12-52.89,66.12-158.68v-66.12c0-51.05,20.76-97.33,54.22-130.91,33.59-33.46,79.87-54.22,130.91-54.22,102.22,0,185.12,82.92,185.12,185.14v66.12c0,105.79,13.23,158.68,66.12,158.68,0,0,11.64,81.33-95.73,80.67l47.48,10.97c35.97,8.2,61.49,40.33,61.49,77.22Z"/>
    </g>
  </g>
</svg>