<?xml version="1.0" encoding="UTF-8"?>
<svg id="Layer_2" data-name="Layer 2" xmlns="http://www.w3.org/2000/svg" viewBox="0 0 392.6 365.92">
  <defs>
    <style>
      .cls-1 {
        fill: #fff;
      }
    </style>
  </defs>
  <g id="Objects">
    <g>
      <path class="cls-1" d="M259.94,284.43c6.38-41.16,9.85-84.49,3.43-125.89-7.38-47.61-34.22-93.42-80.82-111.16,13.52-15.61-3.72-28.19-18.76-31.26-15.71-3.21-50.23,2.49-44.83,24.83.77,3.18,3.15,4.05,3.56,6.92-19.99,6.11-37.91,18.2-51.51,34-38.1,44.26-36.5,131.36-30.36,186.39.6,5.34,1.89,10.71,2.65,16.03-15.02,10.15-25.66,22.71-34.3,38.58-7.01,12.87-18,31.86,4.13,35.91,21.71,3.98,49.51,3.99,71.88,5.12,61.02,3.09,124.02,3.09,185.01-3.01,14.33-1.43,38.96-.71,30.36-22.35-8-20.13-25.04-39.34-40.44-54.1ZM176.11,324.46c-9.05,9.41-18.61,18.43-27.06,28.44l-2.51.97-67.02-71.98c10.6-1.79,15.52-9.99,17.01-20.01l26,15.48c20.24,8.92,43,9.03,60.9-5.07,2-1.57,9.89-10.62,11.45-10.34l19.56,22.29c-12.95,13.24-25.52,26.87-38.35,40.22ZM140.15,257.75c-37.81-3.95-60.51-46.35-64.61-80.39-.47-3.93-1.63-14.67-.99-17.97,1.13-5.8,31.17-25.41,37.67-29.33,10.27-6.19,31.92-18.45,43.02-20.98.73-.17,2.16-.75,2.28.28-2.95,3.17-5.95,7.26-7.87,11.13-1.68,3.39-6.12,15.68-6.12,18.88v15.5l6.19-12.31c11.3-15.35,26.96-29.01,43.8-37.69,9.48,24.57,21.21,48.69,34.59,71.47-10.39,42.92-37.76,86.65-87.96,81.41Z"/>
      <path class="cls-1" d="M374.8,3.1c-17.86-7.8-26.38,1.41-42.74,2.81-21.64,1.85-42.52-13.73-61.55,2.45-27.45,23.34.92,66.55,3.05,94.97.39,5.2-.46,10.81-.03,16.03.65,7.93,2.71,38.91,16.57,32.62,1.12-.51,7.32-6.35,8.4-7.63,7.11-8.45,12.84-21.27,17.88-30.08,3.32-5.8,18.81-36.35,21.85-38.21,4.37-2.68,9.22,1.32,9.14,6.09l-16.77,31.62c5.89,3.11,8.63,11.53,12.52,17.01,4.08,5.76,9.34,13.19,13.89,18.11,7.2,7.81,14.79,1.87,17.58-6.47,5.11-15.32,1.81-34.97,5.55-48.86,6.73-24.98,27-76.34-5.32-90.47Z"/>
    </g>
  </g>
</svg>