<svg width="23" height="23" viewBox="0 0 23 23" fill="none" xmlns="http://www.w3.org/2000/svg">
<path d="M11.4231 1.18994C11.6771 1.18994 11.9118 1.32479 12.0397 1.5441L15.2198 6.99571L21.1156 8.48263C21.36 8.54426 21.5537 8.73015 21.6254 8.97175C21.697 9.21334 21.636 9.47483 21.4649 9.65972L17.4365 14.0109L18.9539 20.7835C19.0122 21.0439 18.9205 21.3151 18.7159 21.4865C18.5114 21.6581 18.2283 21.7011 17.9821 21.5982L11.4231 18.8578L4.86418 21.5982C4.61793 21.7011 4.33487 21.6581 4.13036 21.4865C3.92585 21.3151 3.83407 21.0439 3.89241 20.7835L5.40976 14.0109L1.38144 9.65972C1.21024 9.47483 1.14922 9.21334 1.22091 8.97175C1.29259 8.73015 1.48635 8.54426 1.7307 8.48263L7.62644 6.99571L10.8066 1.5441C10.9345 1.32479 11.1693 1.18994 11.4231 1.18994Z" fill="#FF881B"/>
</svg>
